<?xml version="1.0" standalone="no"?>
<!DOCTYPE svg PUBLIC "-//W3C//DTD SVG 20010904//EN"
 "http://www.w3.org/TR/2001/REC-SVG-20010904/DTD/svg10.dtd">
<svg version="1.0" xmlns="http://www.w3.org/2000/svg"
 width="1024.000000pt" height="1024.000000pt" viewBox="0 0 1024.000000 1024.000000"
 preserveAspectRatio="xMidYMid meet">
<metadata>
Created by potrace 1.11, written by Peter Selinger 2001-2013
</metadata>
<g transform="translate(0.000000,1024.000000) scale(0.100000,-0.100000)"
fill="#000000" stroke="none">
<path d="M760 10233 c32 -4 28 -7 -50 -32 -47 -15 -94 -33 -105 -40 -23 -14
-32 -17 86 24 61 21 160 41 239 49 19 1 -19 3 -85 3 -66 0 -104 -2 -85 -4z"/>
<path d="M9340 10230 c36 -4 83 -10 105 -13 28 -5 32 -4 15 2 -23 8 -22 9 15
13 22 3 -14 5 -80 5 -101 0 -110 -1 -55 -7z"/>
<path d="M9565 10181 c44 -16 81 -28 83 -26 4 4 -99 43 -135 50 -15 3 8 -8 52
-24z"/>
<path d="M9661 10146 c2 -2 15 -9 29 -15 24 -11 24 -11 6 3 -16 13 -49 24 -35
12z"/>
<path d="M494 10104 c-18 -14 -18 -15 4 -4 12 6 22 13 22 15 0 8 -5 6 -26 -11z"/>
<path d="M9720 10117 c0 -2 28 -22 63 -43 34 -21 103 -76 152 -123 89 -84 89
-84 20 -12 -38 40 -97 92 -130 116 -60 43 -105 69 -105 62z"/>
<path d="M389 10033 c-13 -16 -12 -17 4 -4 16 13 21 21 13 21 -2 0 -10 -8 -17
-17z"/>
<path d="M290 9945 c-41 -41 -72 -75 -69 -75 2 0 38 34 79 75 41 41 72 75 69
75 -2 0 -38 -34 -79 -75z"/>
<path d="M179 9818 c-28 -39 -69 -110 -56 -98 10 10 95 140 91 140 -2 0 -18
-19 -35 -42z"/>
<path d="M10066 9795 c25 -38 49 -72 52 -75 15 -14 -46 85 -70 113 -15 17 -7
1 18 -38z"/>
<path d="M76 9635 c-9 -26 -7 -32 5 -12 6 10 9 21 6 23 -2 3 -7 -2 -11 -11z"/>
<path d="M10151 9650 c0 -3 13 -41 29 -85 32 -89 41 -90 11 -2 -18 51 -40 100
-40 87z"/>
<path d="M37 9523 c-24 -73 -25 -76 -30 -43 -2 19 -4 -19 -4 -85 0 -66 2 -104
3 -85 7 74 27 177 45 229 11 30 17 56 15 59 -3 2 -16 -31 -29 -75z"/>
<path d="M10218 9440 c3 -19 8 -64 12 -100 7 -65 7 -65 8 30 1 59 -2 90 -7 81
-7 -12 -10 -11 -14 5 -2 10 -2 3 1 -16z"/>
<path d="M3405 7614 c-75 -7 -210 -25 -250 -34 -259 -57 -420 -114 -612 -215
-433 -228 -734 -558 -947 -1036 -38 -87 -87 -255 -115 -399 -45 -231 -45 -589
0 -820 68 -350 213 -661 427 -923 64 -77 215 -227 297 -294 84 -68 261 -180
373 -236 200 -98 329 -143 557 -192 68 -15 224 -34 279 -35 l58 0 136 -132
c166 -163 143 -142 265 -241 192 -156 299 -226 459 -301 243 -114 510 -162
762 -137 113 12 139 16 241 43 127 33 317 124 421 201 76 57 230 201 245 229
8 15 -6 37 -73 120 -46 55 -107 131 -136 167 -30 36 -58 68 -63 69 -5 2 -38
-22 -72 -55 -111 -103 -251 -194 -362 -234 -93 -33 -201 -50 -321 -50 -104 0
-137 4 -234 32 -130 38 -308 148 -434 270 l-81 77 45 12 c398 112 705 291 975
571 182 188 319 398 414 634 5 11 13 31 19 45 25 57 74 228 93 325 50 255 53
575 8 845 -39 236 -133 486 -259 696 -155 256 -387 493 -645 659 -152 98 -402
212 -560 256 -117 32 -141 37 -305 65 -81 14 -510 27 -605 18z m454 -555 c341
-54 596 -169 834 -373 173 -149 343 -407 420 -637 61 -182 81 -314 81 -529 0
-179 -6 -235 -41 -390 -83 -360 -312 -692 -618 -895 -274 -182 -561 -265 -910
-265 -304 1 -562 68 -816 213 -267 152 -452 351 -591 636 -79 161 -94 209
-140 431 -18 88 -18 452 0 540 43 210 61 265 127 405 101 215 228 383 389 514
237 192 493 304 801 350 86 12 386 13 464 0z"/>
<path d="M7235 6588 c-248 -45 -354 -79 -534 -170 -152 -78 -254 -152 -381
-278 -189 -188 -330 -435 -388 -680 -66 -276 -71 -572 -13 -820 89 -384 314
-712 632 -921 194 -129 354 -194 604 -249 190 -42 552 -37 750 9 97 23 171 44
180 52 5 5 16 9 24 9 29 0 255 120 326 172 98 72 225 205 290 303 30 45 55 87
55 92 0 6 -51 42 -112 80 -62 39 -157 98 -210 132 -53 33 -101 61 -107 61 -5
0 -23 -19 -39 -43 -41 -58 -146 -164 -212 -214 -196 -146 -490 -211 -761 -168
-192 30 -303 73 -454 175 -188 127 -345 365 -394 595 -27 125 -31 165 -31 293
1 327 100 590 297 787 152 152 316 235 553 280 88 17 311 20 378 4 26 -5 67
-15 92 -21 193 -44 409 -189 527 -353 21 -30 41 -54 44 -55 4 0 71 42 150 93
79 51 174 113 212 136 37 24 67 48 67 54 0 24 -116 182 -188 255 -147 150
-316 254 -517 320 -106 34 -162 48 -299 72 -71 12 -471 11 -541 -2z"/>
<path d="M2 870 c-1 -59 2 -90 7 -81 7 12 10 11 14 -5 2 -10 2 -3 -1 16 -3 19
-8 64 -12 100 -7 65 -7 65 -8 -30z"/>
<path d="M10228 890 c-5 -41 -10 -88 -13 -105 -2 -16 2 -5 10 25 8 30 14 78
12 105 -2 46 -3 44 -9 -25z"/>
<path d="M35 727 c7 -36 46 -139 50 -135 2 2 -10 39 -26 83 -16 44 -27 67 -24
52z"/>
<path d="M10201 743 c-1 -6 -4 -20 -7 -30 -5 -17 -5 -17 6 0 6 10 9 23 6 30
-3 9 -5 9 -5 0z"/>
<path d="M142 479 c12 -22 28 -45 36 -51 7 -7 -1 12 -19 40 -38 62 -50 69 -17
11z"/>
<path d="M10068 448 c-26 -40 -35 -58 -20 -41 26 30 77 113 70 113 -2 0 -24
-33 -50 -72z"/>
<path d="M190 406 c0 -2 8 -10 18 -17 15 -13 16 -12 3 4 -13 16 -21 21 -21 13z"/>
<path d="M220 367 c0 -1 35 -36 78 -77 l77 -75 -75 78 c-69 71 -80 82 -80 74z"/>
<path d="M9940 295 c-41 -41 -72 -75 -69 -75 2 0 38 34 79 75 41 41 72 75 69
75 -2 0 -38 -34 -79 -75z"/>
<path d="M392 204 c9 -10 32 -28 50 -38 39 -22 29 -11 -27 29 -23 17 -33 21
-23 9z"/>
<path d="M9804 182 c-29 -21 -60 -43 -70 -50 -11 -7 0 -3 24 10 38 19 115 78
102 77 -3 -1 -28 -17 -56 -37z"/>
<path d="M480 146 c0 -3 9 -10 20 -16 11 -6 20 -8 20 -6 0 3 -9 10 -20 16 -11
6 -20 8 -20 6z"/>
<path d="M603 80 c26 -17 157 -60 181 -60 17 0 18 -2 6 -10 -10 -7 15 -9 80
-8 52 1 79 3 60 4 -79 8 -178 28 -239 49 -116 40 -108 38 -88 25z"/>
<path d="M9620 80 c-8 -5 -10 -10 -5 -10 6 0 17 5 25 10 8 5 11 10 5 10 -5 0
-17 -5 -25 -10z"/>
<path d="M9535 49 c-27 -10 -37 -17 -21 -14 31 7 97 33 81 33 -5 0 -32 -8 -60
-19z"/>
<path d="M9438 25 c-3 -3 -41 -9 -84 -14 l-79 -8 95 -2 c59 0 90 3 81 8 -11 7
-9 10 10 14 20 4 21 4 3 6 -11 0 -23 -1 -26 -4z"/>
</g>
</svg>
