<?xml version="1.0" ?><svg height="20px" version="1.1" viewBox="0 0 20 20" width="20px" xmlns="http://www.w3.org/2000/svg" xmlns:sketch="http://www.bohemiancoding.com/sketch/ns" xmlns:xlink="http://www.w3.org/1999/xlink"><title/><desc/><defs/><g fill="none" fill-rule="evenodd" id="Page-1" stroke="none" stroke-width="1"><g fill="#FFF" id="Icons-Communication" transform="translate(-168.000000, -125.000000)"><g id="textsms" transform="translate(168.000000, 125.000000)"><path d="M18,0 L2,0 C0.9,0 0,0.9 0,2 L0,20 L4,16 L18,16 C19.1,16 20,15.1 20,14 L20,2 C20,0.9 19.1,0 18,0 L18,0 Z M7,9 L5,9 L5,7 L7,7 L7,9 L7,9 Z M11,9 L9,9 L9,7 L11,7 L11,9 L11,9 Z M15,9 L13,9 L13,7 L15,7 L15,9 L15,9 Z" id="Shape"/></g></g></g></svg>
